<?xml version="1.0" encoding="UTF-8"?>
<svg id="_레이어_2" data-name="레이어 2" xmlns="http://www.w3.org/2000/svg" xmlns:xlink="http://www.w3.org/1999/xlink" viewBox="0 0 428.72 428.72">
  <defs>
    <mask id="mask" x="0" y="0" width="1537.41" height="428.72" maskUnits="userSpaceOnUse">
      <g id="mask-2">
        <polygon id="path-1" points="0 428.72 1537.41 428.72 1537.41 0 0 0 0 428.72" fill="#fff" fill-rule="evenodd" stroke-width="0"/>
      </g>
    </mask>
  </defs>
  <g id="_레이어_1-2" data-name="레이어 1">
    <path d="M204.17,169.6c-3.01,6.01-14.68,19.1-18.57,22.28-7.25-5.84-27.76-22.1-46.33-38.02-18.21,16.45-38.55,33.24-45.98,39.08-4.24-3.18-16.27-15.74-19.27-21.75,11.49-10.26,31.65-27.59,48.81-42.62-.18-13.79,0-23.87.35-31.3,5.13-.53,24.4-.71,31.12,0,.35,8.66.53,18.57.35,31.3,17.51,14.5,37.84,30.95,49.51,41.03Z" fill="#8e45ff" stroke-width="0"/>
    <path d="M80.03,265.25c11.67-.35,77.28-.35,86.83,0v-8.67c-14.85.35-71.26.35-86.12,0-.71-7.43-.71-18.21,0-25.64,12.73-.71,101.86-.71,116.18.18,1.42,21.57,1.24,38.37,0,59.59-11.14.71-67.9.18-86.47,0v8.84c13.26-.18,75.33-.35,90.01,0,.88,7.43.88,18.21,0,25.64-14.15.53-105.04.88-120.42,0-1.24-21.75-1.06-38.73,0-59.95Z" fill="#8e45ff" stroke-width="0"/>
    <path d="M348.28,325.2c-11.14.88-102.39,1.24-116.18,0-.53-20.87-.71-72.86,0-93.9,7.43-.71,23.17-.53,29.88,0,.18,3.54.18,12.38.18,22.46,15.56-.18,41.2-.18,56.41,0v-22.46c7.6-.53,22.1-.53,29.71,0,.53,23.87.53,74.45,0,93.9ZM318.57,298.85v-17.86c-14.85.18-41.03.18-56.41,0,0,7.78-.18,14.5-.18,17.86,8.31.35,49.51.35,56.59,0Z" fill="#8e45ff" stroke-width="0"/>
    <path d="M347.49,191.18c-5.84.71-22.99.71-30.06,0-.18-3.71-.18-13.26-.18-24.05-36.43-.18-73.21,0-83.82-.35-.88-7.43-.88-18.74,0-26.17,7.78-.35,48.45-.53,83.82-.53,0-7.78,0-14.15.18-16.62-43.5,0-74.62.53-87.71,0-.71-7.43-.71-18.74,0-26.17,13.97-.53,101.68-.88,117.77,0,.88,14.32.88,83.64,0,93.9Z" fill="#8e45ff" stroke-width="0"/>
    <g mask="url(#mask)">
      <path id="Fill-8" d="M32.15,396.56h364.4V32.15H32.15v364.4ZM0,428.72h428.72V0H0v428.72Z" fill="#fff" fill-rule="evenodd" stroke-width="0"/>
    </g>
  </g>
</svg>